<svg xmlns="http://www.w3.org/2000/svg" viewBox="0 0 1512 2016">
    <defs>
        <link xmlns="http://www.w3.org/1999/xhtml" rel="stylesheet" href="https://fonts.googleapis.com/css?family=Lato|Martel|Source+Serif+Pro|IM+Fell+Great+Primer" type="text/css"/>
        <style>
            .title {
                font-family: "Source Serif Pro", serif;
                font-size: 64px;
                font-weight: bold;
            }

            .section-title {
                font-family: "Lato", sans-serif;
                font-size: 20px;
                font-weight: bold;
                text-transform: uppercase;
            }

            .stat-word {
                font-family: "Lato", sans-serif;
                font-size: 28px;
                font-weight: bold;
            }

            .stat-abbreviation {
                font-family: "Lato", sans-serif;
                font-size: 28px;
                font-weight: bold;
                text-transform: uppercase;
            }

            .stat-annotation {
                font-family: "Lato", sans-serif;
                font-size: 16px;
            }

            .stat-label {
                font-family: "Lato", sans-serif;
                font-size: 14px;
                font-weight: bold;
                text-transform: uppercase;
            }
            .stat-label.large {
                font-size: 20px;
                font-weight: bold;
                text-transform: initial;
            }
            .label {
                font-family: "Lato", sans-serif;
                font-size: 14px;
                font-weight: bold;
            }
        </style>
    </defs>

    <g id="title-bar">
        <rect width="1512" height="94" fill="#333333" />
        <text class="title" y="20" x="15" fill="white" dominant-baseline="hanging">DnD: ME</text>
        <rect x="1025" y="52" width="462" height="38" stroke-width="2" stroke="#333333" fill="white" />
        <text class="label" x="1027" y="88" dominant-baseline="ideographic">Player Name</text>
        <text class="title" style="font-size: 48px" x="1487" y="5" text-anchor="end" dominant-baseline="hanging" fill="white">Character Sheet</text>
    </g>

    <g id="character-name-bar" transform="translate(0 94)">
        <g transform="translate(0 0)">
            <line x1="0" x2="490" y1="44" y2="44" stroke-width="2" stroke="#333333" />
            <text class="label" y="53" dominant-baseline="hanging">Character Name</text>
        </g>

        <g transform="translate(509 0)">
            <rect x="0" y="6" width="88" height="38" stroke-width="2" stroke="#333333" fill="transparent" />
            <text class="label" y="53" x="44" dominant-baseline="hanging" text-anchor="middle">Level</text>
        </g>

        <g transform="translate(613 0)">
            <line x1="0" x2="230" y1="44" y2="44" stroke-width="2" stroke="#333333" />
            <text class="label" y="53" dominant-baseline="hanging">Class</text>
        </g>

        <g transform="translate(852 0)">
            <line x1="0" x2="236" y1="44" y2="44" stroke-width="2" stroke="#333333" />
            <text class="label" y="53" dominant-baseline="hanging">Paragon Path</text>
        </g>

        <g transform="translate(1099 0)">
            <line x1="0" x2="244" y1="44" y2="44" stroke-width="2" stroke="#333333" />
            <text class="label" y="53" dominant-baseline="hanging">Epic Destiny</text>
        </g>

        <g transform="translate(1348 0)">
            <rect x="0" y="6" width="154" height="38" stroke-width="2" stroke="#333333" fill="transparent" />
            <text class="label" y="53" x="77" dominant-baseline="hanging" text-anchor="middle">Total XP</text>
        </g>
    </g>

    <g id="aesthetics-bar" transform="translate(0 143)">
        <g transform="translate(0 0)">
            <line x1="0" x2="293" y1="44" y2="44" stroke-width="2" stroke="#333333" />
            <text class="label" y="53" dominant-baseline="hanging">Race</text>
        </g>

        <g transform="translate(306 0)">
            <line x1="0" x2="79" y1="44" y2="44" stroke-width="2" stroke="#333333" />
            <text class="label" y="53" dominant-baseline="hanging">Size</text>
        </g>

        <g transform="translate(398 0)">
            <line x1="0" x2="60" y1="44" y2="44" stroke-width="2" stroke="#333333" />
            <text class="label" y="53" dominant-baseline="hanging">Age</text>
        </g>

        <g transform="translate(473 0)">
            <line x1="0" x2="71" y1="44" y2="44" stroke-width="2" stroke="#333333" />
            <text class="label" y="53" dominant-baseline="hanging">Height</text>
        </g>

        <g transform="translate(558 0)">
            <line x1="0" x2="71" y1="44" y2="44" stroke-width="2" stroke="#333333" />
            <text class="label" y="53" dominant-baseline="hanging">Weight</text>
        </g>

        <g transform="translate(643 0)">
            <line x1="0" x2="76" y1="44" y2="44" stroke-width="2" stroke="#333333" />
            <text class="label" y="53" dominant-baseline="hanging">Alignment</text>
        </g>

        <g transform="translate(733 0)">
            <line x1="0" x2="155" y1="44" y2="44" stroke-width="2" stroke="#333333" />
            <text class="label" y="53" dominant-baseline="hanging">Pronouns</text>
        </g>

        <g transform="translate(901 0)">
            <line x1="0" x2="158" y1="44" y2="44" stroke-width="2" stroke="#333333" />
            <text class="label" y="53" dominant-baseline="hanging">Deity</text>
        </g>

        <g transform="translate(1071 0)">
            <line x1="0" x2="435" y1="44" y2="44" stroke-width="2" stroke="#333333" />
            <text class="label" y="53" dominant-baseline="hanging">Adventuring Company or Other Affiliations</text>
        </g>

    </g>

    <g id="movement" transform="translate(0 215)">
        <g>
            <rect width="498" height="34" fill="#333333" />
            <text class="section-title" y="8.5" x="249" fill="white" text-anchor="middle" dominant-baseline="hanging">Movement</text>
        </g>
        <g transform="translate(0 52)">
            <rect x="16" width="482" height="50" fill="#333333" />
            <text class="stat-label" y="1" x="2" dominant-baseline="ideographic">Score</text>
            <rect y="5" width="65" height="40" fill="white" stroke-width="2" stroke="#333333" />
            <text class="stat-word" y="36" x="82" fill="white">Speed</text>
            <text class="stat-annotation" y="36" x="174" fill="white">(Squares)</text>

            <text x="282" dx="23" y="1" class="stat-label" text-anchor="middle" dominant-baseline="ideographic">Base</text>
            <rect x="282" y="7" width="47" height="36" fill="white" stroke-width="0" />
            <text x="336" dx="23" y="1" class="stat-label" text-anchor="middle" dominant-baseline="ideographic">Armor</text>
            <rect x="336" y="7" width="47" height="36" fill="white" stroke-width="0" />
            <text x="390" dx="23" y="1" class="stat-label" text-anchor="middle" dominant-baseline="ideographic">Item</text>
            <rect x="390" y="7" width="47" height="36" fill="white" stroke-width="0" />
            <text x="444" dx="23" y="1" class="stat-label" text-anchor="middle" dominant-baseline="ideographic">Misc</text>
            <rect x="444" y="7" width="47" height="36" fill="white" stroke-width="0" />
        </g>
        <g transform="translate(0 125)">
            <text class="stat-label" y="1" x="2" dominant-baseline="ideographic">Special Movement</text>
        </g>
    </g>

    <g id="ability-scores" transform="translate(0 360)">
        <g>
            <rect width="498" height="34" fill="#333333" />
            <text class="section-title" y="8.5" x="249" fill="white" text-anchor="middle" dominant-baseline="hanging">Ability Scores</text>
        </g>
        <g transform="translate(16 0)">
            <g transform="translate(0 50)">
                <text class="stat-label" y="1" x="2" dominant-baseline="ideographic">Score</text>
                <text class="stat-label" y="1" x="388" text-anchor="middle" dominant-baseline="ideographic">Score + 1 / 2 LVL</text>
            </g>
            <g transform="translate(0 50)">
                <rect x="190" y="23" width="234" height="53" fill="#888888" />
                <path transform="translate(0 23)" d="M424 0v53L539 0z" fill="#888888" />
                <g>
                    <rect x="16" width="174" height="48" fill="#333333" />
                    <rect y="4" width="65" height="40" fill="white" stroke-width="2" stroke="#333333" />
                    <text class="stat-abbreviation" y="31" x="127" text-anchor="middle" dominant-baseline="ideographic" fill="white">STR</text>
                    <text class="stat-annotation" y="31" x="127" text-anchor="middle" dominant-baseline="hanging" fill="white">Strength</text>

                    <rect x="350" width="43" height="48" fill="#333333" />
                    <rect x="353" y="4" width="69" height="40" fill="white" stroke-width="2" stroke="#333333" />
                </g>

                <g transform="translate(0 51)">
                    <rect x="16" width="174" height="48" fill="#333333" />
                    <rect y="4" width="65" height="40" fill="white" stroke-width="2" stroke="#333333" />
                    <text class="stat-abbreviation" y="31" x="127" text-anchor="middle" dominant-baseline="ideographic" fill="white">CON</text>
                    <text class="stat-annotation" y="31" x="127" text-anchor="middle" dominant-baseline="hanging" fill="white">Constitution</text>

                    <rect x="350" width="43" height="48" fill="#333333" />
                    <rect x="353" y="4" width="69" height="40" fill="white" stroke-width="2" stroke="#333333" />
                </g>
            </g>
            <g transform="translate(0 170)">
                <rect x="190" y="23" width="234" height="53" fill="#888888" />
                <path transform="translate(0 23)" d="M424 0v53L539 0z" fill="#888888" />
                <g>
                    <rect x="16" width="174" height="48" fill="#333333" />
                    <rect y="4" width="65" height="40" fill="white" stroke-width="2" stroke="#333333" />
                    <text class="stat-abbreviation" y="31" x="127" text-anchor="middle" dominant-baseline="ideographic" fill="white">DEX</text>
                    <text class="stat-annotation" y="31" x="127" text-anchor="middle" dominant-baseline="hanging" fill="white">Dexterity</text>

                    <rect x="350" width="43" height="48" fill="#333333" />
                    <rect x="353" y="4" width="69" height="40" fill="white" stroke-width="2" stroke="#333333" />
                </g>

                <g transform="translate(0 51)">
                    <rect x="16" width="174" height="48" fill="#333333" />
                    <rect y="4" width="65" height="40" fill="white" stroke-width="2" stroke="#333333" />
                    <text class="stat-abbreviation" y="31" x="127" text-anchor="middle" dominant-baseline="ideographic" fill="white">INT</text>
                    <text class="stat-annotation" y="31" x="127" text-anchor="middle" dominant-baseline="hanging" fill="white">Intelligence</text>

                    <rect x="350" width="43" height="48" fill="#333333" />
                    <rect x="353" y="4" width="69" height="40" fill="white" stroke-width="2" stroke="#333333" />
                </g>
            </g>
            <g transform="translate(0 290)">
                <rect x="190" y="23" width="234" height="53" fill="#888888" />
                <path transform="translate(0 23)" d="M424 0v53L539 0z" fill="#888888" />
                <g>
                    <rect x="16" width="174" height="48" fill="#333333" />
                    <rect y="4" width="65" height="40" fill="white" stroke-width="2" stroke="#333333" />
                    <text class="stat-abbreviation" y="31" x="127" text-anchor="middle" dominant-baseline="ideographic" fill="white">WIS</text>
                    <text class="stat-annotation" y="31" x="127" text-anchor="middle" dominant-baseline="hanging" fill="white">Wisdom</text>

                    <rect x="350" width="43" height="48" fill="#333333" />
                    <rect x="353" y="4" width="69" height="40" fill="white" stroke-width="2" stroke="#333333" />
                </g>

                <g transform="translate(0 51)">
                    <rect x="16" width="174" height="48" fill="#333333" />
                    <rect y="4" width="65" height="40" fill="white" stroke-width="2" stroke="#333333" />
                    <text class="stat-abbreviation" y="31" x="127" text-anchor="middle" dominant-baseline="ideographic" fill="white">CHA</text>
                    <text class="stat-annotation" y="31" x="127" text-anchor="middle" dominant-baseline="hanging" fill="white">Charisma</text>

                    <rect x="350" width="43" height="48" fill="#333333" />
                    <rect x="353" y="4" width="69" height="40" fill="white" stroke-width="2" stroke="#333333" />
                </g>
            </g>
        </g>
    </g>

    <g id="defenses" transform="translate(513 215)">
        <g>
            <rect width="498" height="34" fill="#333333" />
            <text class="section-title" y="8.5" x="249" fill="white" text-anchor="middle" dominant-baseline="hanging">Defenses</text>
        </g>
        <g transform="translate(0 52)">
            <text class="stat-label" y="1" x="2" dominant-baseline="ideographic">Score</text>
        </g>
        <g transform="translate(0 67)">
            <rect x="16" width="482" height="50" fill="#333333" />
            <circle cy="25" cx="28" r="28" fill="white" stroke-width="2" stroke="#333333" />
            <text class="stat-abbreviation" y="36" x="96" text-anchor="middle" fill="white">AC</text>

            <text x="141" dx="23" y="1" dy="-14" class="stat-label" text-anchor="middle" dominant-baseline="ideographic">10 +</text>
            <text x="141" dx="23" y="1" class="stat-label" text-anchor="middle" dominant-baseline="ideographic">1/2 LVL</text>
            <rect x="141" y="7" width="47" height="36" fill="white" stroke-width="0" />
            <text x="192" dx="23" y="1" dy="-14" class="stat-label" text-anchor="middle" dominant-baseline="ideographic">Armor /</text>
            <text x="192" dx="23" y="1" class="stat-label" text-anchor="middle" dominant-baseline="ideographic">Abil</text>
            <rect x="192" y="7" width="47" height="36" fill="white" stroke-width="0" />
            <text x="243" dx="23" y="1" class="stat-label" text-anchor="middle" dominant-baseline="ideographic">Class</text>
            <rect x="243" y="7" width="47" height="36" fill="white" stroke-width="0" />
            <text x="294" dx="23" y="1" class="stat-label" text-anchor="middle" dominant-baseline="ideographic">Feat</text>
            <rect x="294" y="7" width="47" height="36" fill="white" stroke-width="0" />
            <text x="345" dx="23" y="1" class="stat-label" text-anchor="middle" dominant-baseline="ideographic">ENH</text>
            <rect x="345" y="7" width="47" height="36" fill="white" stroke-width="0" />
            <text x="396" dx="23" y="1" class="stat-label" text-anchor="middle" dominant-baseline="ideographic">Misc</text>
            <rect x="396" y="7" width="47" height="36" fill="white" stroke-width="0" />
            <text x="447" dx="23" y="1" class="stat-label" text-anchor="middle" dominant-baseline="ideographic">Misc</text>
            <rect x="447" y="7" width="47" height="36" fill="white" stroke-width="0" />
            <text class="stat-label" y="74" x="2" dominant-baseline="ideographic">Conditional Bonuses</text>
        </g>

        <g transform="translate(0 203)">
            <rect x="16" width="482" height="50" fill="#333333" />
            <circle cy="25" cx="28" r="28" fill="white" stroke-width="2" stroke="#333333" />
            <text class="stat-abbreviation" y="36" x="96" text-anchor="middle" fill="white">FORT</text>

            <text x="141" dx="23" y="1" dy="-14" class="stat-label" text-anchor="middle" dominant-baseline="ideographic">10 +</text>
            <text x="141" dx="23" y="1" class="stat-label" text-anchor="middle" dominant-baseline="ideographic">1/2 LVL</text>
            <rect x="141" y="7" width="47" height="36" fill="white" stroke-width="0" />
            <text x="192" dx="23" y="1" class="stat-label" text-anchor="middle" dominant-baseline="ideographic">Abil</text>
            <rect x="192" y="7" width="47" height="36" fill="white" stroke-width="0" />
            <text x="243" dx="23" y="1" class="stat-label" text-anchor="middle" dominant-baseline="ideographic">Class</text>
            <rect x="243" y="7" width="47" height="36" fill="white" stroke-width="0" />
            <text x="294" dx="23" y="1" class="stat-label" text-anchor="middle" dominant-baseline="ideographic">Feat</text>
            <rect x="294" y="7" width="47" height="36" fill="white" stroke-width="0" />
            <text x="345" dx="23" y="1" class="stat-label" text-anchor="middle" dominant-baseline="ideographic">ENH</text>
            <rect x="345" y="7" width="47" height="36" fill="white" stroke-width="0" />
            <text x="396" dx="23" y="1" class="stat-label" text-anchor="middle" dominant-baseline="ideographic">Misc</text>
            <rect x="396" y="7" width="47" height="36" fill="white" stroke-width="0" />
            <text x="447" dx="23" y="1" class="stat-label" text-anchor="middle" dominant-baseline="ideographic">Misc</text>
            <rect x="447" y="7" width="47" height="36" fill="white" stroke-width="0" />
            <text class="stat-label" y="74" x="2" dominant-baseline="ideographic">Conditional Bonuses</text>
        </g>

        <g transform="translate(0 323)">
            <rect x="16" width="482" height="50" fill="#333333" />
            <circle cy="25" cx="28" r="28" fill="white" stroke-width="2" stroke="#333333" />
            <text class="stat-abbreviation" y="36" x="96" text-anchor="middle" fill="white">REFL</text>

            <text x="141" dx="23" y="1" dy="-14" class="stat-label" text-anchor="middle" dominant-baseline="ideographic">10 +</text>
            <text x="141" dx="23" y="1" class="stat-label" text-anchor="middle" dominant-baseline="ideographic">1/2 LVL</text>
            <rect x="141" y="7" width="47" height="36" fill="white" stroke-width="0" />
            <text x="192" dx="23" y="1" class="stat-label" text-anchor="middle" dominant-baseline="ideographic">Abil</text>
            <rect x="192" y="7" width="47" height="36" fill="white" stroke-width="0" />
            <text x="243" dx="23" y="1" class="stat-label" text-anchor="middle" dominant-baseline="ideographic">Class</text>
            <rect x="243" y="7" width="47" height="36" fill="white" stroke-width="0" />
            <text x="294" dx="23" y="1" class="stat-label" text-anchor="middle" dominant-baseline="ideographic">Feat</text>
            <rect x="294" y="7" width="47" height="36" fill="white" stroke-width="0" />
            <text x="345" dx="23" y="1" class="stat-label" text-anchor="middle" dominant-baseline="ideographic">ENH</text>
            <rect x="345" y="7" width="47" height="36" fill="white" stroke-width="0" />
            <text x="396" dx="23" y="1" class="stat-label" text-anchor="middle" dominant-baseline="ideographic">Misc</text>
            <rect x="396" y="7" width="47" height="36" fill="white" stroke-width="0" />
            <text x="447" dx="23" y="1" class="stat-label" text-anchor="middle" dominant-baseline="ideographic">Misc</text>
            <rect x="447" y="7" width="47" height="36" fill="white" stroke-width="0" />
            <text class="stat-label" y="74" x="2" dominant-baseline="ideographic">Conditional Bonuses</text>
        </g>

        <g transform="translate(0 443)">
            <rect x="16" width="482" height="50" fill="#333333" />
            <circle cy="25" cx="28" r="28" fill="white" stroke-width="2" stroke="#333333" />
            <text class="stat-abbreviation" y="36" x="96" text-anchor="middle" fill="white">WILL</text>

            <text x="141" dx="23" y="1" dy="-14" class="stat-label" text-anchor="middle" dominant-baseline="ideographic">10 +</text>
            <text x="141" dx="23" y="1" class="stat-label" text-anchor="middle" dominant-baseline="ideographic">1/2 LVL</text>
            <rect x="141" y="7" width="47" height="36" fill="white" stroke-width="0" />
            <text x="192" dx="23" y="1" class="stat-label" text-anchor="middle" dominant-baseline="ideographic">Abil</text>
            <rect x="192" y="7" width="47" height="36" fill="white" stroke-width="0" />
            <text x="243" dx="23" y="1" class="stat-label" text-anchor="middle" dominant-baseline="ideographic">Class</text>
            <rect x="243" y="7" width="47" height="36" fill="white" stroke-width="0" />
            <text x="294" dx="23" y="1" class="stat-label" text-anchor="middle" dominant-baseline="ideographic">Feat</text>
            <rect x="294" y="7" width="47" height="36" fill="white" stroke-width="0" />
            <text x="345" dx="23" y="1" class="stat-label" text-anchor="middle" dominant-baseline="ideographic">ENH</text>
            <rect x="345" y="7" width="47" height="36" fill="white" stroke-width="0" />
            <text x="396" dx="23" y="1" class="stat-label" text-anchor="middle" dominant-baseline="ideographic">Misc</text>
            <rect x="396" y="7" width="47" height="36" fill="white" stroke-width="0" />
            <text x="447" dx="23" y="1" class="stat-label" text-anchor="middle" dominant-baseline="ideographic">Misc</text>
            <rect x="447" y="7" width="47" height="36" fill="white" stroke-width="0" />
            <text class="stat-label" y="74" x="2" dominant-baseline="ideographic">Conditional Bonuses</text>
        </g>

    </g>

    <g id="health" transform="translate(0 762)">
        <g>
            <rect width="498" height="34" fill="#333333" />
            <text class="section-title" y="8.5" x="249" fill="white" text-anchor="middle" dominant-baseline="hanging">Hit Points</text>
        </g>
        <g transform="translate(0 34)">
            <text class="stat-label large" y="28" x="55" text-anchor="middle" dominant-baseline="ideographic">Max HP</text>
            <rect x="2" y="33" width="106" height="59" fill="white" stroke-width="2" stroke="#333333" />
            <text class="stat-label" y="45" x="180" text-anchor="middle" dominant-baseline="ideographic">Bloodied</text>
            <rect x="122" y="47" width="116" height="40" fill="white" stroke-width="2" stroke="#333333" />
            <text class="stat-label" y="89" x="180" text-anchor="middle" dominant-baseline="hanging">1/2 HP</text>

            <text class="stat-label large" y="28" x="383" text-anchor="middle" dominant-baseline="ideographic">Healing Surges</text>
            <text class="stat-label" y="45" x="325" text-anchor="middle" dominant-baseline="ideographic">Surge Value</text>
            <rect x="267" y="47" width="116" height="40" fill="white" stroke-width="2" stroke="#333333" />
            <text class="stat-label" y="89" x="325" text-anchor="middle" dominant-baseline="hanging">1/4 HP</text>
            <text class="stat-label" y="45" x="446" text-anchor="middle" dominant-baseline="ideographic">Surges/Day</text>
            <rect x="394" y="47" width="104" height="40" fill="white" stroke-width="2" stroke="#333333" />
        </g>
        <g transform="translate(0 140)">
            <rect x="0" y="0" width="498" height="111" fill="white" stroke-width="2" stroke="#333333" />
            <text class="stat-label" y="2" x="2" text-anchor="start" dominant-baseline="hanging">Current Hit Points</text>
            <text class="stat-label" y="2" x="496" text-anchor="end" dominant-baseline="hanging">Current Surge Uses</text>
        </g>
        <g transform="translate(0 251)">
            <rect width="498" height="26" fill="#333333" />
            <text class="stat-label large" y="13" x="200" text-anchor="middle" dominant-baseline="middle" fill="white">Second Wind 1/Encounter</text>
            <text class="stat-label large" y="13" x="400" text-anchor="end" dominant-baseline="middle" fill="white">Used</text>
            <rect x="404" y="3" width="20" height="20" fill="white" stroke-width="2" stroke="#333333" />
        </g>
        <g transform="translate(0 277)">
            <rect x="0" y="0" width="498" height="67" fill="white" stroke-width="2" stroke="#333333" />
            <text class="stat-label" y="2" x="2" text-anchor="start" dominant-baseline="hanging">Temporary Points</text>
        </g>
        <g transform="translate(0 344)">
            <rect width="498" height="26" fill="#333333" />
            <text class="stat-label large" y="13" x="200" text-anchor="middle" dominant-baseline="middle" fill="white">Death Saving Throw Failures</text>
            <rect x="381" y="3" width="20" height="20" fill="white" stroke-width="2" stroke="#333333" />
            <rect x="404" y="3" width="20" height="20" fill="white" stroke-width="2" stroke="#333333" />
            <rect x="427" y="3" width="20" height="20" fill="white" stroke-width="2" stroke="#333333" />
        </g>
        <g transform="translate(0 370)">
            <rect x="0" y="0" width="498" height="50" fill="white" stroke-width="2" stroke="#333333" />
            <text class="stat-label" y="2" x="2" text-anchor="start" dominant-baseline="hanging">Saving Throw Mods</text>
        </g>
        <g transform="translate(0 420)">
            <rect x="0" y="0" width="498" height="62" fill="white" stroke-width="2" stroke="#333333" />
            <text class="stat-label" y="2" x="2" text-anchor="start" dominant-baseline="hanging">Resistances</text>
        </g>
        <g transform="translate(0 482)">
            <rect x="0" y="0" width="498" height="62" fill="white" stroke-width="2" stroke="#333333" />
            <text class="stat-label" y="2" x="2" text-anchor="start" dominant-baseline="hanging">Current Conditions and Effects</text>
        </g>
    </g>

    <g id="action-points" transform="translate(513 762)">
        <g>
            <rect width="498" height="34" fill="#333333" />
            <text class="section-title" y="8.5" x="249" fill="white" text-anchor="middle" dominant-baseline="hanging">Action Points</text>
        </g>
        <g transform="translate(0 50)">
            <rect x="16" width="249" height="48" fill="#333333" />
            <rect y="4" width="65" height="40" fill="white" stroke-width="2" stroke="#333333" />
            <text class="stat-word" y="26" x="72" text-anchor="left" dominant-baseline="middle" fill="white">Action Points</text>
            <g>
                <text class="stat-label" dy="-2" y="0" x="318" text-anchor="middle" dominant-baseline="hanging">Milestones</text>
                <text class="stat-label" dy="-2" y="13" x="318" text-anchor="middle" dominant-baseline="hanging">0</text>
                <text class="stat-label" dy="-2" y="26" x="318" text-anchor="middle" dominant-baseline="hanging">1</text>
                <text class="stat-label" dy="-2" y="39" x="318" text-anchor="middle" dominant-baseline="hanging">2</text>
            </g>
            <g>
                <text class="stat-label" dy="-2" y="0" x="428" text-anchor="middle" dominant-baseline="hanging">Action Points</text>
                <text class="stat-label" dy="-2" y="13" x="428" text-anchor="middle" dominant-baseline="hanging">1</text>
                <text class="stat-label" dy="-2" y="26" x="428" text-anchor="middle" dominant-baseline="hanging">2</text>
                <text class="stat-label" dy="-2" y="39" x="428" text-anchor="middle" dominant-baseline="hanging">3</text>
            </g>
            <text class="stat-label" y="50" x="2" text-anchor="start" dominant-baseline="hanging">Additional Effects for Spending Action Points</text>

        </g>
    </g>

    <g id="attack-workspace" transform="translate(1026 215)">
        <g>
            <rect width="498" height="34" fill="#333333" />
            <text class="section-title" y="8.5" x="249" fill="white" text-anchor="middle" dominant-baseline="hanging">Attack Workspace</text>
        </g>
        <g transform="translate(0 36)" id="attack-workspace-ability">
            <text class="stat-label" y="1" x="2" dominant-baseline="hanging">Ability:</text>
            <g transform="translate(0 52)">
                <rect x="16" width="482" height="48" fill="#333333" />
                <text x="2" y="1" class="stat-label" dominant-baseline="ideographic">ATK Bonus</text>
                <rect y="3" width="65" height="42" fill="white" stroke-width="2" stroke="#333333" />

                <text x="141" dx="23" y="1" class="stat-label" text-anchor="middle" dominant-baseline="ideographic">1/2 LVL</text>
                <rect x="141" y="6" width="47" height="36" fill="white" stroke-width="0" />
                <text x="192" dx="23" y="1" class="stat-label" text-anchor="middle" dominant-baseline="ideographic">Abil</text>
                <rect x="192" y="6" width="47" height="36" fill="white" stroke-width="0" />
                <text x="243" dx="23" y="1" class="stat-label" text-anchor="middle" dominant-baseline="ideographic">Class</text>
                <rect x="243" y="6" width="47" height="36" fill="white" stroke-width="0" />
                <text x="294" dx="23" y="1" class="stat-label" text-anchor="middle" dominant-baseline="ideographic">Prof</text>
                <rect x="294" y="6" width="47" height="36" fill="white" stroke-width="0" />
                <text x="345" dx="23" y="1" class="stat-label" text-anchor="middle" dominant-baseline="ideographic">Feat</text>
                <rect x="345" y="6" width="47" height="36" fill="white" stroke-width="0" />
                <text x="396" dx="23" y="1" class="stat-label" text-anchor="middle" dominant-baseline="ideographic">Enh</text>
                <rect x="396" y="6" width="47" height="36" fill="white" stroke-width="0" />
                <text x="447" dx="23" y="1" class="stat-label" text-anchor="middle" dominant-baseline="ideographic">Misc</text>
                <rect x="447" y="6" width="47" height="36" fill="white" stroke-width="0" />
            </g>
            <g transform="translate(0 118)">
                <rect x="16" width="482" height="48" fill="#333333" />
                <text x="2" y="1" class="stat-label" dominant-baseline="ideographic">Damage</text>
                <rect y="3" width="165" height="42" fill="white" stroke-width="2" stroke="#333333" />

                <text x="243" dx="23" y="1" class="stat-label" text-anchor="middle" dominant-baseline="ideographic">Abil</text>
                <rect x="243" y="6" width="47" height="36" fill="white" stroke-width="0" />
                <text x="294" dx="23" y="1" class="stat-label" text-anchor="middle" dominant-baseline="ideographic">Feat</text>
                <rect x="294" y="6" width="47" height="36" fill="white" stroke-width="0" />
                <text x="345" dx="23" y="1" class="stat-label" text-anchor="middle" dominant-baseline="ideographic">Enh</text>
                <rect x="345" y="6" width="47" height="36" fill="white" stroke-width="0" />
                <text x="396" dx="23" y="1" class="stat-label" text-anchor="middle" dominant-baseline="ideographic">Misc</text>
                <rect x="396" y="6" width="47" height="36" fill="white" stroke-width="0" />
                <text x="447" dx="23" y="1" class="stat-label" text-anchor="middle" dominant-baseline="ideographic">Misc</text>
                <rect x="447" y="6" width="47" height="36" fill="white" stroke-width="0" />
            </g>
        </g>
        <use transform="translate(0 170)" href="#attack-workspace-ability" />
        <use transform="translate(0 340)" href="#attack-workspace-ability" />

    </g>

    <g id="basic-attacks" transform="translate(1026 762)">
        <g>
            <rect width="498" height="34" fill="#333333" />
            <text class="section-title" y="8.5" x="249" fill="white" text-anchor="middle" dominant-baseline="hanging">Basic Attacks</text>
        </g>
        <g transform="translate(0 36)" id="attack-workspace-ability">
            <text class="stat-label" y="1" x="31" text-anchor="middle" dominant-baseline="hanging">Attack</text>
            <text class="stat-label" y="1" x="128" text-anchor="middle" dominant-baseline="hanging">Defense</text>
            <text class="stat-label" y="1" x="269" text-anchor="middle" dominant-baseline="hanging">Weapon or Power</text>
            <text class="stat-label" y="1" x="440" text-anchor="middle" dominant-baseline="hanging">Damage</text>
        </g>
        <g transform="translate(0 50)" id="basic-attack">
            <rect y="0" width="62" height="42" fill="white" stroke-width="2" stroke="#333333" />
            <rect y="0" x="97" width="62" height="42" fill="white" stroke-width="2" stroke="#333333" />
            <text class="label" y="32" x="79" text-anchor="middle" dominant-baseline="ideographic">vs</text>
            <line x1="171" x2="368" y1="42" y2="42" stroke-width="2" stroke="#333333" />
            <line x1="382" x2="498" y1="42" y2="42" stroke-width="2" stroke="#333333" />
        </g>
        <use href="#basic-attack" transform="translate(0 50)"/>
        <use href="#basic-attack" transform="translate(0 100)"/>
        <use href="#basic-attack" transform="translate(0 150)"/>
    </g>

</svg>
